<svg width="12" height="8" viewBox="0 0 12 8" fill="none" xmlns="http://www.w3.org/2000/svg">
<path d="M4.36664 6.1L10.0166 0.45C10.15 0.316667 10.3083 0.25 10.4916 0.25C10.675 0.25 10.8333 0.316667 10.9666 0.45C11.1 0.583333 11.1666 0.741667 11.1666 0.925C11.1666 1.10833 11.1 1.26667 10.9666 1.4L4.83331 7.53333C4.69998 7.66667 4.54442 7.73333 4.36664 7.73333C4.18886 7.73333 4.03331 7.66667 3.89998 7.53333L1.03331 4.66667C0.899975 4.53333 0.836086 4.375 0.841642 4.19167C0.847197 4.00833 0.916642 3.85 1.04998 3.71667C1.18331 3.58333 1.34164 3.51667 1.52498 3.51667C1.70831 3.51667 1.86664 3.58333 1.99998 3.71667L4.36664 6.1Z" fill="#8A2BE2"/>
</svg>
