<svg width="16" height="20" viewBox="0 0 16 20" fill="none" xmlns="http://www.w3.org/2000/svg">
<path d="M6.65001 12.875H9.35001L8.78751 9.7C9.12472 9.54038 9.39027 9.30892 9.58416 9.00562C9.77806 8.70234 9.87501 8.36713 9.87501 8C9.87501 7.48437 9.69131 7.04296 9.32391 6.67578C8.95649 6.30859 8.51482 6.125 7.99891 6.125C7.48297 6.125 7.04167 6.30859 6.67501 6.67578C6.30834 7.04296 6.12501 7.48437 6.12501 8C6.12501 8.36713 6.22196 8.70234 6.41586 9.00562C6.60974 9.30892 6.87529 9.54038 7.21251 9.7L6.65001 12.875ZM8.00001 19.75C5.74849 19.18 3.88978 17.8814 2.42388 15.854C0.957964 13.8266 0.225006 11.5752 0.225006 9.1V3.175L8.00001 0.25L15.775 3.175V9.1C15.775 11.5752 15.042 13.8266 13.5761 15.854C12.1102 17.8814 10.2515 19.18 8.00001 19.75Z" fill="#404040"/>
</svg>
